# xmcd
#
# Track frame offsets:
#	150
#	20212
#	39517
#	64137
#	80450
#	97965
#	115757
#	122877
#	138232
#	159492
#	180690
#
# Disc length: 2617 seconds
#
# Revision: 2
# Processed by: cddbd v1.5.1PL2 Copyright (c) Steve Scherf et al.
# Submitted via: EasyCDDAExtractor 10.0.1.1
#
DISCID=8f0a370b
DTITLE=Unanimated - In The Forest Of The Dreaming Dead
DYEAR=1993
DGENRE=Death Metal
TTITLE0=At Dawn-Whispering Shadows
TTITLE1=Blackness Of The Fallen Star
TTITLE2=Fire Storm
TTITLE3=Storms From The Skies Of Grief
TTITLE4=Through The Gates
TTITLE5=Wind Of A Dismal Past
TTITLE6=Silence Ends
TTITLE7=Mournful Twilight
TTITLE8=In The Forest Of The Dreaming Dead
TTITLE9=Cold Northern Breeze
TTITLE10=Buried Alive (Venom cover)
EXTD=YEAR: 1994 ID3G:   9
EXTT0=
EXTT1=
EXTT2=
EXTT3=
EXTT4=
EXTT5=
EXTT6=
EXTT7=
EXTT8=
EXTT9=
EXTT10=
PLAYORDER=
